<svg width="400" height="300" viewBox="0 0 400 300" xmlns="http://www.w3.org/2000/svg">
  <!-- Background -->
  <rect width="400" height="300" fill="#f8f9fa"/>
  
  <!-- Floor -->
  <rect x="0" y="250" width="400" height="50" fill="#d5dbdb"/>
  
  <!-- Art Tables -->
  <rect x="50" y="180" width="80" height="50" fill="#8b4513" rx="5"/>
  <rect x="50" y="175" width="80" height="10" fill="#a0522d" rx="5"/>
  
  <rect x="200" y="180" width="80" height="50" fill="#8b4513" rx="5"/>
  <rect x="200" y="175" width="80" height="10" fill="#a0522d" rx="5"/>
  
  <!-- Easels -->
  <line x1="150" y1="100" x2="150" y2="200" stroke="#8b4513" stroke-width="4"/>
  <line x1="140" y1="180" x2="160" y2="180" stroke="#8b4513" stroke-width="4"/>
  <line x1="145" y1="120" x2="155" y2="120" stroke="#8b4513" stroke-width="2"/>
  
  <line x1="320" y1="100" x2="320" y2="200" stroke="#8b4513" stroke-width="4"/>
  <line x1="310" y1="180" x2="330" y2="180" stroke="#8b4513" stroke-width="4"/>
  <line x1="315" y1="120" x2="325" y2="120" stroke="#8b4513" stroke-width="2"/>
  
  <!-- Canvas on easels -->
  <rect x="135" y="110" width="30" height="40" fill="white" stroke="#2c3e50" stroke-width="2"/>
  <rect x="305" y="110" width="30" height="40" fill="white" stroke="#2c3e50" stroke-width="2"/>
  
  <!-- Paintings on canvas -->
  <circle cx="150" cy="125" r="8" fill="#e74c3c"/>
  <rect x="145" y="135" width="10" height="8" fill="#3498db"/>
  
  <circle cx="320" cy="120" r="6" fill="#f39c12"/>
  <polygon points="315,135 320,125 325,135" fill="#27ae60"/>
  
  <!-- Art Supplies on Tables -->
  <!-- Paint tubes -->
  <rect x="60" y="170" width="3" height="8" fill="#e74c3c"/>
  <rect x="65" y="170" width="3" height="8" fill="#3498db"/>
  <rect x="70" y="170" width="3" height="8" fill="#f39c12"/>
  <rect x="75" y="170" width="3" height="8" fill="#27ae60"/>
  
  <!-- Brushes -->
  <line x1="85" y1="165" x2="85" y2="175" stroke="#8b4513" stroke-width="2"/>
  <line x1="88" y1="165" x2="88" y2="175" stroke="#8b4513" stroke-width="2"/>
  <line x1="91" y1="165" x2="91" y2="175" stroke="#8b4513" stroke-width="2"/>
  
  <circle cx="85" cy="163" r="2" fill="#2c3e50"/>
  <circle cx="88" cy="163" r="2" fill="#2c3e50"/>
  <circle cx="91" cy="163" r="2" fill="#2c3e50"/>
  
  <!-- Palette -->
  <ellipse cx="220" cy="170" rx="15" ry="8" fill="white" stroke="#2c3e50" stroke-width="2"/>
  <circle cx="215" cy="168" r="2" fill="#e74c3c"/>
  <circle cx="220" cy="165" r="2" fill="#3498db"/>
  <circle cx="225" cy="168" r="2" fill="#f39c12"/>
  <circle cx="220" cy="172" r="2" fill="#27ae60"/>
  
  <!-- Art Storage Shelves -->
  <rect x="20" y="80" width="15" height="120" fill="#8b4513"/>
  <rect x="370" y="80" width="15" height="120" fill="#8b4513"/>
  
  <!-- Art supplies on shelves -->
  <rect x="22" y="85" width="4" height="15" fill="#e74c3c"/>
  <rect x="26" y="85" width="4" height="15" fill="#3498db"/>
  <rect x="30" y="85" width="3" height="15" fill="#27ae60"/>
  
  <rect x="372" y="85" width="4" height="15" fill="#9b59b6"/>
  <rect x="376" y="85" width="4" height="15" fill="#f39c12"/>
  <rect x="380" y="85" width="3" height="15" fill="#1abc9c"/>
  
  <!-- Pottery Wheel -->
  <circle cx="100" cy="120" r="20" fill="#95a5a6"/>
  <circle cx="100" cy="120" r="15" fill="#7f8c8d"/>
  <circle cx="100" cy="120" r="8" fill="#8b4513"/>
  
  <!-- Clay pot on wheel -->
  <rect x="95" y="110" width="10" height="12" fill="#d35400" rx="2"/>
  
  <!-- Kiln -->
  <rect x="300" y="200" width="40" height="30" fill="#2c3e50" rx="5"/>
  <rect x="305" y="205" width="30" height="20" fill="#34495e" rx="3"/>
  <circle cx="320" cy="210" r="3" fill="#e74c3c"/>
  
  <!-- Ceiling Lights -->
  <rect x="100" y="20" width="40" height="8" fill="#f1c40f" rx="4"/>
  <rect x="260" y="20" width="40" height="8" fill="#f1c40f" rx="4"/>
  
  <!-- Windows -->
  <rect x="350" y="50" width="30" height="60" fill="#87ceeb" stroke="#2c3e50" stroke-width="2"/>
  <line x1="365" y1="50" x2="365" y2="110" stroke="#2c3e50" stroke-width="1"/>
  <line x1="350" y1="80" x2="380" y2="80" stroke="#2c3e50" stroke-width="1"/>
  
  <!-- Title -->
  <text x="200" y="280" font-family="Arial, sans-serif" font-size="18" font-weight="bold" text-anchor="middle" fill="#2c3e50">Arts Studio</text>
</svg>
