<svg width="1000" height="400" viewBox="0 0 1000 400" xmlns="http://www.w3.org/2000/svg">
  <defs>
    <linearGradient id="facility2Gradient" x1="0%" y1="0%" x2="100%" y2="100%">
      <stop offset="0%" style="stop-color:#27ae60;stop-opacity:1" />
      <stop offset="100%" style="stop-color:#229954;stop-opacity:1" />
    </linearGradient>
  </defs>
  
  <!-- Background -->
  <rect width="1000" height="400" fill="url(#facility2Gradient)"/>
  
  <!-- STEM Laboratory -->
  <!-- Lab Tables -->
  <rect x="100" y="200" width="150" height="80" fill="#ecf0f1" stroke="#34495e" stroke-width="2"/>
  <rect x="300" y="200" width="150" height="80" fill="#ecf0f1" stroke="#34495e" stroke-width="2"/>
  <rect x="500" y="200" width="150" height="80" fill="#ecf0f1" stroke="#34495e" stroke-width="2"/>
  <rect x="700" y="200" width="150" height="80" fill="#ecf0f1" stroke="#34495e" stroke-width="2"/>
  
  <!-- Lab Equipment -->
  <!-- Microscopes -->
  <rect x="120" y="180" width="20" height="20" fill="#2c3e50"/>
  <circle cx="130" cy="175" r="8" fill="#3498db"/>
  
  <rect x="320" y="180" width="20" height="20" fill="#2c3e50"/>
  <circle cx="330" cy="175" r="8" fill="#3498db"/>
  
  <!-- Beakers and Test Tubes -->
  <rect x="520" y="170" width="15" height="30" fill="rgba(255,255,255,0.9)" rx="3"/>
  <rect x="525" y="175" width="10" height="20" fill="#e74c3c" opacity="0.7"/>
  
  <rect x="540" y="175" width="8" height="25" fill="rgba(255,255,255,0.9)" rx="4"/>
  <rect x="555" y="180" width="8" height="20" fill="rgba(255,255,255,0.9)" rx="4"/>
  <rect x="570" y="175" width="8" height="25" fill="rgba(255,255,255,0.9)" rx="4"/>
  
  <!-- Computer Stations -->
  <rect x="720" y="170" width="60" height="30" fill="#2c3e50"/>
  <rect x="725" y="175" width="50" height="20" fill="#3498db"/>
  
  <!-- Whiteboard -->
  <rect x="50" y="80" width="200" height="100" fill="white" stroke="#34495e" stroke-width="3"/>
  <text x="150" y="120" font-family="Arial, sans-serif" font-size="16" text-anchor="middle" fill="#2c3e50">H₂O + CO₂</text>
  <text x="150" y="140" font-family="Arial, sans-serif" font-size="16" text-anchor="middle" fill="#2c3e50">→ H₂CO₃</text>
  
  <!-- Periodic Table -->
  <rect x="750" y="80" width="200" height="100" fill="#34495e"/>
  <rect x="760" y="90" width="20" height="15" fill="#e74c3c"/>
  <text x="770" y="100" font-family="Arial, sans-serif" font-size="8" text-anchor="middle" fill="white">H</text>
  <rect x="785" y="90" width="20" height="15" fill="#3498db"/>
  <text x="795" y="100" font-family="Arial, sans-serif" font-size="8" text-anchor="middle" fill="white">He</text>
  <rect x="760" y="110" width="20" height="15" fill="#f39c12"/>
  <text x="770" y="120" font-family="Arial, sans-serif" font-size="8" text-anchor="middle" fill="white">Li</text>
  
  <!-- Safety Equipment -->
  <rect x="900" y="150" width="30" height="60" fill="#e74c3c"/>
  <circle cx="915" cy="130" r="10" fill="#e74c3c"/>
  <text x="915" y="135" font-family="Arial, sans-serif" font-size="8" text-anchor="middle" fill="white">🔥</text>
  
  <!-- Ceiling -->
  <rect x="0" y="0" width="1000" height="60" fill="rgba(255,255,255,0.1)"/>
  <circle cx="200" cy="30" r="12" fill="rgba(255,255,255,0.8)"/>
  <circle cx="500" cy="30" r="12" fill="rgba(255,255,255,0.8)"/>
  <circle cx="800" cy="30" r="12" fill="rgba(255,255,255,0.8)"/>
  
  <!-- Text -->
  <text x="500" y="350" font-family="Arial, sans-serif" font-size="24" font-weight="bold" text-anchor="middle" fill="white">STEM Laboratory</text>
  <text x="500" y="375" font-family="Arial, sans-serif" font-size="16" text-anchor="middle" fill="rgba(255,255,255,0.9)">Advanced equipment for hands-on scientific exploration</text>
</svg>
