<svg width="400" height="300" viewBox="0 0 400 300" xmlns="http://www.w3.org/2000/svg">
  <!-- Background -->
  <rect width="400" height="300" fill="#f8f9fa"/>
  
  <!-- Floor -->
  <rect x="0" y="250" width="400" height="50" fill="#d5dbdb"/>
  
  <!-- Bookshelves -->
  <rect x="20" y="80" width="15" height="170" fill="#8b4513"/>
  <rect x="50" y="80" width="15" height="170" fill="#8b4513"/>
  <rect x="80" y="80" width="15" height="170" fill="#8b4513"/>
  
  <!-- Books on shelves -->
  <!-- Shelf 1 -->
  <rect x="22" y="85" width="4" height="25" fill="#e74c3c"/>
  <rect x="26" y="85" width="4" height="25" fill="#3498db"/>
  <rect x="30" y="85" width="3" height="25" fill="#27ae60"/>
  
  <rect x="52" y="85" width="4" height="25" fill="#9b59b6"/>
  <rect x="56" y="85" width="4" height="25" fill="#f39c12"/>
  <rect x="60" y="85" width="3" height="25" fill="#1abc9c"/>
  
  <rect x="82" y="85" width="4" height="25" fill="#e67e22"/>
  <rect x="86" y="85" width="4" height="25" fill="#34495e"/>
  <rect x="90" y="85" width="3" height="25" fill="#95a5a6"/>
  
  <!-- Shelf 2 -->
  <rect x="22" y="130" width="4" height="25" fill="#2ecc71"/>
  <rect x="26" y="130" width="4" height="25" fill="#e74c3c"/>
  <rect x="30" y="130" width="3" height="25" fill="#3498db"/>
  
  <rect x="52" y="130" width="4" height="25" fill="#f1c40f"/>
  <rect x="56" y="130" width="4" height="25" fill="#9b59b6"/>
  <rect x="60" y="130" width="3" height="25" fill="#e67e22"/>
  
  <rect x="82" y="130" width="4" height="25" fill="#1abc9c"/>
  <rect x="86" y="130" width="4" height="25" fill="#e74c3c"/>
  <rect x="90" y="130" width="3" height="25" fill="#3498db"/>
  
  <!-- Reading Tables -->
  <rect x="150" y="180" width="100" height="60" fill="#8b4513" rx="5"/>
  <rect x="150" y="175" width="100" height="10" fill="#a0522d" rx="5"/>
  
  <rect x="280" y="180" width="100" height="60" fill="#8b4513" rx="5"/>
  <rect x="280" y="175" width="100" height="10" fill="#a0522d" rx="5"/>
  
  <!-- Chairs -->
  <rect x="160" y="160" width="25" height="40" fill="#34495e" rx="3"/>
  <rect x="160" y="155" width="25" height="8" fill="#2c3e50" rx="3"/>
  
  <rect x="210" y="160" width="25" height="40" fill="#34495e" rx="3"/>
  <rect x="210" y="155" width="25" height="8" fill="#2c3e50" rx="3"/>
  
  <rect x="290" y="160" width="25" height="40" fill="#34495e" rx="3"/>
  <rect x="290" y="155" width="25" height="8" fill="#2c3e50" rx="3"/>
  
  <rect x="340" y="160" width="25" height="40" fill="#34495e" rx="3"/>
  <rect x="340" y="155" width="25" height="8" fill="#2c3e50" rx="3"/>
  
  <!-- Books on tables -->
  <rect x="170" y="170" width="8" height="12" fill="#e74c3c"/>
  <rect x="180" y="168" width="8" height="12" fill="#3498db"/>
  
  <rect x="300" y="170" width="8" height="12" fill="#27ae60"/>
  <rect x="310" y="168" width="8" height="12" fill="#9b59b6"/>
  
  <!-- Computer Station -->
  <rect x="320" y="100" width="60" height="40" fill="#2c3e50" rx="3"/>
  <rect x="325" y="105" width="50" height="30" fill="#3498db"/>
  <rect x="330" y="110" width="40" height="20" fill="#ecf0f1"/>
  <rect x="345" y="140" width="10" height="8" fill="#34495e"/>
  
  <!-- Ceiling Lights -->
  <rect x="120" y="20" width="40" height="8" fill="#f1c40f" rx="4"/>
  <rect x="240" y="20" width="40" height="8" fill="#f1c40f" rx="4"/>
  
  <!-- Windows -->
  <rect x="350" y="50" width="40" height="80" fill="#87ceeb" stroke="#2c3e50" stroke-width="2"/>
  <line x1="370" y1="50" x2="370" y2="130" stroke="#2c3e50" stroke-width="1"/>
  <line x1="350" y1="90" x2="390" y2="90" stroke="#2c3e50" stroke-width="1"/>
  
  <!-- Title -->
  <text x="200" y="280" font-family="Arial, sans-serif" font-size="18" font-weight="bold" text-anchor="middle" fill="#2c3e50">School Library</text>
</svg>
