<svg width="350" height="200" viewBox="0 0 350 200" xmlns="http://www.w3.org/2000/svg">
  <defs>
    <linearGradient id="news2Gradient" x1="0%" y1="0%" x2="100%" y2="100%">
      <stop offset="0%" style="stop-color:#e74c3c;stop-opacity:1" />
      <stop offset="100%" style="stop-color:#c0392b;stop-opacity:1" />
    </linearGradient>
  </defs>
  
  <!-- Background -->
  <rect width="350" height="200" fill="url(#news2Gradient)"/>
  
  <!-- Basketball -->
  <circle cx="175" cy="100" r="40" fill="#ff8c00" stroke="#d2691e" stroke-width="3"/>
  <path d="M 135 100 Q 175 80 215 100" stroke="#d2691e" stroke-width="2" fill="none"/>
  <path d="M 135 100 Q 175 120 215 100" stroke="#d2691e" stroke-width="2" fill="none"/>
  <line x1="175" y1="60" x2="175" y2="140" stroke="#d2691e" stroke-width="2"/>
  
  <!-- Trophy -->
  <rect x="80" y="120" width="30" height="40" fill="#ffd700" rx="5"/>
  <rect x="85" y="115" width="20" height="10" fill="#ffd700" rx="5"/>
  <rect x="90" y="160" width="10" height="15" fill="#8b4513"/>
  <rect x="85" y="175" width="20" height="5" fill="#8b4513"/>
  
  <!-- Stars -->
  <polygon points="270,50 275,60 285,60 277,68 280,78 270,73 260,78 263,68 255,60 265,60" fill="#ffd700"/>
  <polygon points="300,80 303,86 310,86 305,90 307,97 300,94 293,97 295,90 290,86 297,86" fill="#ffd700"/>
  
  <!-- Text -->
  <text x="175" y="160" font-family="Arial, sans-serif" font-size="16" font-weight="bold" text-anchor="middle" fill="white">Basketball Championship</text>
  <text x="175" y="180" font-family="Arial, sans-serif" font-size="12" text-anchor="middle" fill="white">Regional Champions 2024</text>
</svg>
