<svg width="400" height="300" viewBox="0 0 400 300" xmlns="http://www.w3.org/2000/svg">
  <!-- Background -->
  <rect width="400" height="300" fill="#f8f9fa"/>
  
  <!-- Lab Table -->
  <rect x="50" y="180" width="300" height="80" fill="#8b4513" rx="5"/>
  <rect x="50" y="175" width="300" height="10" fill="#a0522d" rx="5"/>
  
  <!-- Microscope -->
  <rect x="80" y="120" width="40" height="60" fill="white" stroke="#2c3e50" stroke-width="2"/>
  <circle cx="100" cy="110" r="15" fill="#34495e"/>
  <circle cx="100" cy="110" r="8" fill="#3498db"/>
  <rect x="95" y="95" width="10" height="20" fill="#2c3e50"/>
  
  <!-- Computer/Monitor -->
  <rect x="200" y="100" width="80" height="60" fill="#2c3e50" rx="5"/>
  <rect x="205" y="105" width="70" height="45" fill="#3498db"/>
  <rect x="210" y="110" width="60" height="35" fill="#ecf0f1"/>
  <rect x="230" y="160" width="20" height="15" fill="#34495e"/>
  
  <!-- Beakers and Test Tubes -->
  <rect x="120" y="140" width="20" height="30" fill="white" stroke="#2c3e50" stroke-width="2" rx="3"/>
  <rect x="125" y="155" width="10" height="10" fill="#27ae60"/>
  
  <rect x="145" y="135" width="15" height="35" fill="white" stroke="#2c3e50" stroke-width="2" rx="3"/>
  <rect x="148" y="150" width="9" height="15" fill="#e74c3c"/>
  
  <!-- Test Tube Rack -->
  <rect x="300" y="140" width="40" height="20" fill="#8b4513"/>
  <rect x="305" y="120" width="4" height="25" fill="white" stroke="#2c3e50" stroke-width="1" rx="2"/>
  <rect x="312" y="125" width="4" height="20" fill="white" stroke="#2c3e50" stroke-width="1" rx="2"/>
  <rect x="319" y="120" width="4" height="25" fill="white" stroke="#2c3e50" stroke-width="1" rx="2"/>
  <rect x="326" y="125" width="4" height="20" fill="white" stroke="#2c3e50" stroke-width="1" rx="2"/>
  <rect x="333" y="120" width="4" height="25" fill="white" stroke="#2c3e50" stroke-width="1" rx="2"/>
  
  <!-- Test tube liquids -->
  <rect x="306" y="130" width="2" height="10" fill="#9b59b6"/>
  <rect x="313" y="135" width="2" height="8" fill="#f39c12"/>
  <rect x="320" y="130" width="2" height="10" fill="#1abc9c"/>
  <rect x="327" y="135" width="2" height="8" fill="#e67e22"/>
  <rect x="334" y="130" width="2" height="10" fill="#e74c3c"/>
  
  <!-- Molecular Model -->
  <circle cx="60" cy="80" r="8" fill="#e74c3c"/>
  <circle cx="80" cy="70" r="8" fill="#3498db"/>
  <circle cx="70" cy="100" r="8" fill="#27ae60"/>
  <circle cx="90" cy="90" r="8" fill="#f39c12"/>
  <line x1="60" y1="88" x2="70" y2="92" stroke="#2c3e50" stroke-width="3"/>
  <line x1="68" y1="78" x2="82" y2="78" stroke="#2c3e50" stroke-width="3"/>
  <line x1="78" y1="78" x2="85" y2="85" stroke="#2c3e50" stroke-width="3"/>
  
  <!-- Lab Equipment on Shelves -->
  <rect x="20" y="50" width="360" height="8" fill="#bdc3c7"/>
  
  <!-- Books -->
  <rect x="30" y="35" width="8" height="15" fill="#e74c3c"/>
  <rect x="38" y="35" width="8" height="15" fill="#3498db"/>
  <rect x="46" y="35" width="8" height="15" fill="#27ae60"/>
  
  <!-- Lab Safety Equipment -->
  <circle cx="350" cy="40" r="12" fill="#f39c12"/>
  <rect x="345" y="35" width="10" height="10" fill="white"/>
  <text x="350" y="42" font-family="Arial, sans-serif" font-size="8" font-weight="bold" text-anchor="middle" fill="#2c3e50">!</text>
  
  <!-- Title -->
  <text x="200" y="280" font-family="Arial, sans-serif" font-size="18" font-weight="bold" text-anchor="middle" fill="#2c3e50">STEM Laboratory</text>
</svg>
